<?xml version="1.0" standalone="no"?>
<!DOCTYPE svg PUBLIC "-//W3C//DTD SVG 20010904//EN"
 "http://www.w3.org/TR/2001/REC-SVG-20010904/DTD/svg10.dtd">
<svg version="1.0" xmlns="http://www.w3.org/2000/svg"
 width="20.000000pt" height="20.000000pt" viewBox="0 0 20.000000 20.000000"
 preserveAspectRatio="xMidYMid meet">

<g transform="translate(0.000000,20.000000) scale(0.100000,-0.100000)"
fill="#000000" stroke="none">
<path d="M93 147 c-45 -18 -85 -35 -88 -39 -12 -11 47 -22 64 -11 9 5 34 19
56 32 l40 23 -43 -39 c-27 -24 -42 -46 -42 -62 0 -20 2 -22 15 -11 13 10 19
10 33 -4 30 -27 40 -19 52 41 6 32 14 68 17 81 7 29 -4 28 -104 -11z"/>
</g>
</svg>
